[img]http://www.shotpix.com/images/24940000574214150568.png[/img][url]http://www.imdb.com/title/tt0387989[/url]

[img]http://www.shotpix.com/images/77085747293401738346.gif[/img]
Movie Name :- Deewaar: Let's Bring Our Heroes Home (2004)

Genres :- War | Action | Drama  

Release Date :-  25 June 2004 (India)
 
Ratings: 6.3/10 from 672 users
  
Director:- Milan Luthria

Writers:- Anurag Kashyap (dialogue), Shridhar Raghavan 

Stars:- Amitabh Bachchan, Sanjay Dutt, Akshaye Khanna 

[img]http://www.shotpix.com/images/59022378797514383087.gif[/img]

[b]Major Ranvir Kaul (Amitabh Bachchan) is a POW who was captured along with over 30 soldiers by Pakistani soldiers in 1971 during the war between India and Pakistan. 33 years later Ranvir's son Gaurav (Akshaye Khanna) decides to go on a rescue mission to Pakistan and bring back his father who he has not seen since he was a child. Helping him on his mission is Khan (Sanjay Dutt) who had successfully escaped from the same prison. [/b]


[img]http://www.shotpix.com/images/44663617507488027387.gif   [/img]
[code]Complete name                            : Deewaar Let's Bring Our Heroes Home_2004_Hindi_Bollywood Movie_ DVDRip_ x264_{somnath2003}
Format                                   : MPEG-4
Format profile                           : Base Media
Codec ID                                 : isom
File size                                : 895 MiB
Duration                                 : 2h 40mn
Overall bit rate mode                    : Variable
Overall bit rate                         : 780 Kbps
Encoded date                             : UTC 2009-10-20 08:01:00
Tagged date                              : UTC 2009-10-20 08:01:00[/code]

[img]http://www.shotpix.com/images/34235854661596452485.gif[/img]
[code]ID                                       : 1
Format                                   : AVC
Format/Info                              : Advanced Video Codec
Format profile                           : High@L2.1
Format settings, CABAC                   : Yes
Format settings, ReFrames                : 2 frames
Codec ID                                 : avc1
Codec ID/Info                            : Advanced Video Coding
Duration                                 : 2h 40mn
Bit rate                                 : 657 Kbps
Maximum bit rate                         : 1 832 Kbps
Width                                    : 608 pixels
Height                                   : 256 pixels
Display aspect ratio                     : 2.40:1
Frame rate mode                          : Constant
Frame rate                               : 23.976 fps
Color space                              : YUV
Chroma subsampling                       : 4:2:0
Bit depth                                : 8 bits
Scan type                                : Progressive
Bits/(Pixel*Frame)                       : 0.176
Stream size                              : 754 MiB (84%)
Writing library                          : x264 core 68 r1183M f21daff
Encoded date                             : UTC 2009-10-19 20:09:09
Tagged date                              : UTC 2009-10-20 08:01:57[/code]

[img]http://www.shotpix.com/images/54760780871226007874.gif[/img]
[code]ID                                       : 2
Format                                   : AAC
Format/Info                              : Advanced Audio Codec
Format profile                           : HE-AAC / LC
Codec ID                                 : 40
Duration                                 : 2h 40mn
Bit rate mode                            : Variable
Bit rate                                 : 120 Kbps
Maximum bit rate                         : 136 Kbps
Channel(s)                               : 6 channels
Channel positions                        : Front: L C R, Side: L R, LFE
Sampling rate                            : 48.0 KHz / 24.0 KHz
Compression mode                         : Lossy
Stream size                              : 137 MiB (15%)
Language                                 : Hindi
Encoded date                             : UTC 2009-10-20 08:01:48
Tagged date                              : UTC 2009-10-20 08:01:57[/code]

[img]http://www.shotpix.com/images/50894759808379845433.gif[/img]


[img]http://img163.imageshack.us/img163/5739/sbringourheroeshome2004.jpg[/img]


[img]http://www.shotpix.com/images/37530658244654420663.jpg[/img]


[img]http://www.shotpix.com/images/58829411693773444709.gif[/img]